<svg xmlns="http://www.w3.org/2000/svg" width="34.998" height="19.999" viewBox="0 0 34.998 19.999"><defs><style>.a{fill:none;}.b{fill:#e30613;}.c,.d{stroke:none;}.d{fill:#004899;}</style></defs><g class="a" transform="translate(0 2.5)"><path class="c" d="M7,0H28a7,7,0,0,1,7,7V8a7,7,0,0,1-7,7H7A7,7,0,0,1,0,8V7A7,7,0,0,1,7,0Z"/><path class="d" d="M 6.999996185302734 1.000003814697266 C 3.691585540771484 1.000003814697266 0.9999961853027344 3.691594123840332 0.9999961853027344 7.000003814697266 L 0.9999961853027344 7.999263763427734 C 0.9999961853027344 11.30767345428467 3.691585540771484 13.99926376342773 6.999996185302734 13.99926376342773 L 27.9982852935791 13.99926376342773 C 31.30669593811035 13.99926376342773 33.99828720092773 11.30767345428467 33.99828720092773 7.999263763427734 L 33.99828720092773 7.000003814697266 C 33.99828720092773 3.691594123840332 31.30669593811035 1.000003814697266 27.9982852935791 1.000003814697266 L 6.999996185302734 1.000003814697266 M 6.999996185302734 3.814697265625e-06 L 27.9982852935791 3.814697265625e-06 C 31.86428451538086 3.814697265625e-06 34.99828720092773 3.134003639221191 34.99828720092773 7.000003814697266 L 34.99828720092773 7.999263763427734 C 34.99828720092773 11.86526393890381 31.86428451538086 14.99926376342773 27.9982852935791 14.99926376342773 L 6.999996185302734 14.99926376342773 C 3.134004592895508 14.99926376342773 -3.814697265625e-06 11.86526393890381 -3.814697265625e-06 7.999263763427734 L -3.814697265625e-06 7.000003814697266 C -3.814697265625e-06 3.134003639221191 3.134004592895508 3.814697265625e-06 6.999996185302734 3.814697265625e-06 Z"/></g><circle class="b" cx="10" cy="10" r="10" transform="translate(7.5)"/></svg>