<svg xmlns="http://www.w3.org/2000/svg" width="31.071" height="19.203" viewBox="0 0 31.071 19.203"><defs><style>.a{fill:#ff5f00;}.b{fill:#eb001b;}.c{fill:#f79e1b;}</style></defs><g transform="translate(-1105.727 -2403.164)"><g transform="translate(1105.727 2403.164)"><rect class="a" width="8.401" height="15.096" transform="translate(11.335 2.054)"/><path class="b" d="M2910.6,2249.1a9.626,9.626,0,0,1,3.654-7.548,9.6,9.6,0,1,0,0,15.1A9.587,9.587,0,0,1,2910.6,2249.1Z" transform="translate(-2898.734 -2239.502)"/><path class="c" d="M3414.689,2249.1a9.591,9.591,0,0,1-15.522,7.548,9.623,9.623,0,0,0,0-15.1,9.591,9.591,0,0,1,15.522,7.548Z" transform="translate(-3383.618 -2239.502)"/></g></g></svg>