<svg xmlns="http://www.w3.org/2000/svg" width="56.107" height="18.248" viewBox="0 0 56.107 18.248"><defs><style>.a{fill:#005ca9;}.b{fill:#f7a823;}</style></defs><g transform="translate(-1.2 -0.8)"><path class="a" d="M47.762,19.042H43.2L46.069,1.5h4.562Z" transform="translate(-22.247 -0.371)"/><path class="a" d="M17.1,1.447,12.722,13.534l-.517-2.587h0L10.7,3A1.964,1.964,0,0,0,8.537,1.4H1.294L1.2,1.729A17.425,17.425,0,0,1,6,3.752l4,15.285h4.75l7.29-17.589Z" transform="translate(0 -0.318)"/><path class="a" d="M92.955,12.781l2.4-6.584,1.364,6.584Zm5.032,6.208h4.186L98.5,1.4H94.836a2.12,2.12,0,0,0-2.116,1.317L85.9,18.989h4.75l.941-2.634h5.832l.564,2.634Z" transform="translate(-44.865 -0.318)"/><path class="a" d="M71.98,5.315l.658-3.762A13.526,13.526,0,0,0,68.5.8c-2.257,0-7.619.988-7.619,5.832,0,4.562,6.349,4.609,6.349,7.008s-5.691,1.975-7.572.47L59,18.06a12.772,12.772,0,0,0,5.173.988c3.1,0,7.854-1.6,7.854-6.02C71.98,8.419,65.584,8,65.584,5.973c0-1.975,4.468-1.74,6.4-.658Z" transform="translate(-30.616 0)"/><path class="b" d="M12.205,10.9,10.7,3A1.964,1.964,0,0,0,8.537,1.4H1.294L1.2,1.729A17.145,17.145,0,0,1,7.972,5.162,13.446,13.446,0,0,1,12.205,10.9Z" transform="translate(0 -0.318)"/></g></svg>