<svg xmlns="http://www.w3.org/2000/svg" width="56.107" height="17.71" viewBox="0 0 56.107 17.71"><defs><style>.a{fill:#acb6bf;}.b{fill:#d5dade;}</style></defs><path class="a" d="M47.762,18.5H43.2l2.869-17h4.562Z" transform="translate(-23.447 -1.171)"/><path class="a" d="M17.1,1.446,12.723,13.164l-.517-2.508h0L10.7,2.95A1.943,1.943,0,0,0,8.537,1.4H1.294L1.2,1.719A17.749,17.749,0,0,1,6,3.68l4,14.819h4.75l7.29-17.053Z" transform="translate(-1.2 -1.118)"/><path class="a" d="M92.955,12.433l2.4-6.383,1.364,6.383Zm5.032,6.018h4.186L98.5,1.4H94.836a2.113,2.113,0,0,0-2.116,1.277L85.9,18.452h4.75l.941-2.553h5.832l.564,2.553Z" transform="translate(-46.065 -1.118)"/><path class="a" d="M71.98,5.182l.658-3.652A13.885,13.885,0,0,0,68.5.8c-2.257,0-7.619.959-7.619,5.66,0,4.428,6.349,4.473,6.349,6.8s-5.691,1.917-7.572.456L59,17.552a13.1,13.1,0,0,0,5.173.959c3.1,0,7.854-1.552,7.854-5.842-.047-4.473-6.443-4.884-6.443-6.847,0-1.917,4.468-1.689,6.4-.639Z" transform="translate(-31.816 -0.8)"/><path class="b" d="M12.205,10.9,10.7,3A1.964,1.964,0,0,0,8.537,1.4H1.294L1.2,1.729A17.146,17.146,0,0,1,7.972,5.162,13.445,13.445,0,0,1,12.205,10.9Z" transform="translate(-1.2 -1.118)"/></svg>