<svg xmlns="http://www.w3.org/2000/svg" width="393.807" height="327.787" viewBox="0 0 393.807 327.787"><defs><style>.a{fill:#ffcf4a;}.b{fill:#138ff6;fill-rule:evenodd;opacity:0.25;}</style></defs><path class="a" d="M-885,440.74q.656-.126,1.312-.246c30.594-5.581,63.211-9.763,93.661-1.293,30.788,8.563,59.1,31.59,66.47,62.685,7.061,29.807-5.957,61.155-24.894,85.232s-43.54,42.99-64.853,64.99a312.135,312.135,0,0,0-40,50.976c-11.952,19.006-20.824,47.954-43.96,56.16-42.011,14.9-68.374-30.493-89.352-58.364-40.065-53.231-139.68-120.633-120.9-197.493,10.549-43.177,52.5-61.42,93.864-51.4C-969.779,462.624-927.858,448.984-885,440.74Z" transform="translate(1109.851 -434.388)"/><path class="b" d="M-933.556,512.642c33.75-8.8,69.243,5.08,99.31,22.757,24.179,14.215,48.129,32.815,56.817,59.483,5.923,18.18,3.89,38.4-3.4,56.071s-19.548,32.972-33.658,45.875c-9.647,8.822-20.5,16.777-33.023,20.525-14.286,4.274-29.618,2.768-44.349.446-29.166-4.6-58.769-12.261-87.814-6.947-24.454,4.475-47.176,18-72.034,18.286a80.682,80.682,0,0,1-34.889-8.014c-8.5-3.98-16.622-9.409-21.872-17.192-8.931-13.241-8.042-30.821-4.08-46.292,4.468-17.447,12.341-33.868,21.563-49.337,19.027-31.914,44.353-60.519,75.79-80.323s33.02-18.986,69.955-14.939Z" transform="translate(1167.775 -434.387)"/></svg>