<svg xmlns="http://www.w3.org/2000/svg" width="180" height="180" viewBox="0 0 180 180">
  <g id="Group_10278" data-name="Group 10278" transform="translate(-0.5)">
    <rect id="bg" width="180" height="180" transform="translate(0.5)" fill="#f4f4f4"/>
    <path id="Path_5814" data-name="Path 5814" d="M452.722,618.917C449.139,617.5,449,605.859,449,605.859l-3.5.6-1.25-19.125c6.75-4.5,7.375-18,7.375-18,3.5-.25,2.25-4.625,5.625-14.375s-3.25-8.847-3.25-8.847,2.448-15.98-.58-26.837c10.219-2.459,8.068-13.829,8.068-13.829s-5.266,3.666-20.377-4.778c-22.111-12.357-37.333-4.334-44.333,0s-3.876,9.278-3.876,9.278c-3.291.041-5.166-.292-8.458,4.055-5.281,6.976,2.889,32.111,2.889,32.111s-6.625-.9-3.25,8.847,2.125,14.125,5.625,14.375c0,0,.625,13.5,7.375,18l-1.25,19.125-3.5-.6s-.139,11.641-3.722,13.058-48.278,13.916-54.278,29.916H507C501,632.833,456.306,620.333,452.722,618.917Z" transform="translate(-330.332 -469.08)" fill="#d9d9d9"/>
  </g>
</svg>
