<svg xmlns="http://www.w3.org/2000/svg" xmlns:xlink="http://www.w3.org/1999/xlink" width="251" height="203" viewBox="0 0 251 203"><defs><path id="q5gua" d="M900.518 276.118c23.378 3.2 42.359 25.451 63.422 39.337 4.693 3.095 9.612 5.82 14.813 6.626 17.23 2.675 33.116-15.859 50.426-14.345 14.029 1.226 25.926 16.087 30.974 33.568 5.048 17.48 4.273 37.032 1.47 55.383-4.389 28.656-14.112 56.848-31.037 75.487-2.792 3.077-5.912 5.955-9.499 6.654-5.978 1.179-11.52-3.886-16.694-8.074-23.347-18.908-52.864-23.71-78.931-12.84-8.828 3.68-17.272 9.05-26.306 11.699-17.398 5.092-37.086-1.343-48.898-19.105-11.812-17.762-13.732-46.956-2.478-65.357 4.698-7.68 11.173-13.102 16.105-20.512 12.393-18.602 7.818-37.41 6.285-59.224-1.511-21.495 16.69-31.165 30.348-29.297z"/><path id="q5gub" d="M1006.784 412.89s6.915 6.915 3.016 17.177c-3.899 10.26 6.692 27.324 6.692 27.324l-.324-.053c-14.203-2.514-21.26-18.75-13.36-30.816 2.93-4.477 5.34-9.74 3.976-13.632z"/><path id="q5guc" d="M1006.784 413.016s6.915 6.915 3.016 17.176 6.692 27.325 6.692 27.325l-.324-.053c-14.203-2.514-21.26-18.75-13.36-30.816 2.93-4.49 5.34-9.75 3.976-13.632z"/><path id="q5gud" d="M1006.784 412.89s3.904 8.477 0 15.392c-3.904 6.915-.669 26.321 9.703 29.109"/><path id="q5gue" d="M994.469 440.868s7.89-1.257 8.61 5.814c.718 7.071 15.172 8.044 15.172 8.044l-.271.181c-11.935 7.836-23.343 4.99-21.618-5.412.636-3.858.583-7.745-1.893-8.627z"/><path id="q5guf" d="M994.469 440.868s6.126 1.345 5.62 6.913c-.505 5.568 9.095 12.244 18.162 6.953"/><path id="q5gug" d="M924.766 402s5.746 5.747 2.513 14.271c-3.232 8.524 5.56 22.704 5.56 22.704l-.268-.045c-11.8-2.084-17.664-15.585-11.103-25.605 2.428-3.728 4.431-8.1 3.298-11.324z"/><path id="q5guh" d="M924.766 402.096s5.746 5.747 2.513 14.27c-3.232 8.525 5.56 22.705 5.56 22.705l-.28-.038c-11.8-2.084-17.665-15.585-11.104-25.605 2.44-3.735 4.444-8.107 3.31-11.332z"/><path id="q5gui" d="M924.766 402s3.242 7.04 0 12.788c-3.243 5.749-.556 21.87 8.061 24.187"/><path id="q5guj" d="M914.532 425.24s6.563-1.038 7.154 4.832c.591 5.87 12.607 6.699 12.607 6.699l-.227.15c-9.916 6.511-19.396 4.148-17.965-4.497.53-3.225.487-6.462-1.569-7.184z"/><path id="q5guk" d="M914.532 425.24s5.088 1.116 4.67 5.744c-.417 4.628 7.557 10.176 15.083 5.782"/><path id="q5gul" d="M900.634 365.803s5.746 5.746 2.513 14.27c-3.232 8.524 5.56 22.704 5.56 22.704l-.268-.045c-11.8-2.084-17.664-15.585-11.103-25.605 2.428-3.728 4.431-8.099 3.298-11.324z"/><path id="q5gum" d="M900.634 365.898s5.746 5.747 2.513 14.27c-3.232 8.525 5.56 22.705 5.56 22.705l-.28-.038c-11.8-2.084-17.665-15.585-11.104-25.605 2.441-3.735 4.444-8.106 3.31-11.332z"/><path id="q5gun" d="M900.634 365.803s3.242 7.038 0 12.787c-3.243 5.75-.556 21.87 8.061 24.187"/><path id="q5guo" d="M890.4 389.042s6.564-1.038 7.154 4.832c.591 5.87 12.607 6.699 12.607 6.699l-.226.15c-9.917 6.511-19.396 4.148-17.966-4.496.53-3.225.487-6.463-1.569-7.185z"/><path id="q5gup" d="M890.4 389.042s5.088 1.116 4.67 5.744c-.417 4.628 7.557 10.176 15.083 5.782"/><path id="q5guq" d="M838.71 424.8v-3.426l70.206-19.69 12.557-1.428v3.14l-69.92 25.112z"/><path id="q5gur" d="M838.71 421.374l70.206-23.116 12.273 1.998-69.636 24.828z"/><path id="q5gus" d="M849.555 422.231V369.15h4.567v53.082z"/><path id="q5gut" d="M904.349 403.396v-46.52h4.567v46.52z"/><path id="q5guu" d="M920.331 342.322v14.27l-57.009 12.735-6.744 1.508-16.726 3.736-4.852-1.428v-16.55l25.869-4.932 6.438-1.227 47.032-8.967z"/><path id="q5guv" d="M854.122 369.149v2.805l-4.567 1.02v-3.825z"/><path id="q5guw" d="M908.916 356.877v2.838l-4.567 1.018v-3.856z"/><path id="q5gux" d="M920.331 342.322v14.27l-23.146 5.171-6.732 1.504-27.13 6.06-6.745 1.508-16.726 3.736.286-16.267 23.245-4.632 6.503-1.295h.002l26.573-5.296 6.49-1.295z"/><path id="q5guy" d="M869.888 352.377l-6.566 16.95-6.744 1.508 6.805-17.163-2.514-2.011 6.438-1.227 2.579 1.943z"/><path id="q5guz" d="M903.278 346.032l-6.093 15.731-6.732 1.503 6.32-15.94-.312-.245-2.202-1.765 6.438-1.227 2.254 1.697.325.246z"/><path id="q5guA" d="M850.555 421.304l4.565-1.071v1.07l-4.565 1.072z"/><path id="q5guB" d="M905.063 402.468l4.565-1.07v1.07l-4.565 1.071z"/><path id="q5guC" d="M1000.839 363.498c-7.277 3.833-14.811-.503-14.811-.503a4.791 4.791 0 0 1-.405.633 9.814 9.814 0 0 1-.284-.22c-3.127-2.557-6.588-8.593-6.588-8.593l-6.745-12.646a19.737 19.737 0 0 1-1.852-4.824c-1.111-4.822-4.658-5.028-4.658-5.028h-4.156c-2.01 0-4.916.423-7.792 1.006a.528.528 0 0 0 .143-.287l-.138.028 1.543-1.508s4.417-1.79 4.937-5.624l2.338-2.3s.076-.2.181-.555l.777-.978c3.383-4.236 3.627-4.306 3.627-4.306l10.259-6.07s3.682-.524 2.146-10.822c-1.535-10.3-.502-11.564-.502-11.564s2.79-10.318-2.56-9.034c-5.349 1.285-2.93 10.105-2.93 10.105l.372 1.948c.466 2.44.44 4.949-.076 7.378-.555 2.627-1.176 5.872-1.02 6.647.274 1.35-2.816 3.059-2.816 3.059l-1.747 1.02a8.84 8.84 0 0 1-6.13 1.046l-.094-.14-1.045-.785a3.01 3.01 0 0 0-.076.327l-.427-.327v.025c0-.09 0-.176.02-.271a13.542 13.542 0 0 1 .77-3.087 7.722 7.722 0 0 0 7.254-7.654c0-.807-.129-1.608-.382-2.373.197.036.4.036.598 0 .94-.151 1.938-.634 2.426-1.466a2.69 2.69 0 0 0-.199-2.946 2.944 2.944 0 0 0-.402-.42c-.892-1.005-2.386-1.257-3.572-1.933-1.129-.636-1.986-1.651-3.037-2.408-1.986-1.435-4.524-1.868-6.948-2.262-1.04-.169-2.099-.337-3.144-.199-1.323.176-2.54.837-3.575 1.664a3.218 3.218 0 0 0-.902.993c-.385.754-.216 1.639-.284 2.474-.166 2.03-1.76 3.685-3.52 4.763-1.08.661-2.262 1.189-3.17 2.076-.907.888-1.442 2.288-.877 3.409.3.593.89 1.088.895 1.76a1.97 1.97 0 0 1-.251.84 12.235 12.235 0 0 1-2.41 3.393c-3.67-.885-7.633 1.06-7.633 1.06l-11.952.503s-3.379-1.533-7.793 7.924c-4.414 9.456-5.978 9.97-5.978 9.97s-8.044 7.156-2.858 8.945c5.186 1.79 8.044-6.902 8.044-6.902l2.878-5.35s6.496-6.136 7.016-7.412c.52-1.277 3.638-1.277 3.638-1.277l12.671.502c.017.103.027.206.03.31.03 1.417-1.299 2.513-2.636 3.039-.845.336-1.81.59-2.326 1.33-.515.738-.392 1.812.126 2.566.158.225.343.43.55.61.544.561 1.208.99 1.941 1.258a9.002 9.002 0 0 0 1.888.522 19.106 19.106 0 0 1-1.068 3.168l.502.216-.165.442c-.71 1.883-2.17 5.598-3.462 7.846-.012 0-2.348 1.98-4.16 3.77-1.385 1.363-4.723 14.48 5.045 14.716l2.23 1.644h.045c1.983 2.8 8.532 7.4 8.532 7.4l-11.581.684a14.495 14.495 0 0 0-2.29.322c-2.041.447-4.301.289-5.513.145-.802-1.508-4.525-.894-4.525-.894s-.52 7.669.252 12.013c.772 4.343 3.637 1.533 3.637 1.533-.52-3.833 3.77-6.654 3.77-6.654.546-.274 1.192-.606 1.951-1.005 2.409-1.292 13.864.683 17.406 1.337.78.145 1.572.213 2.365.201 10.153-.166 7.516-5.118 7.516-5.118l-2.044-4.022a20.673 20.673 0 0 1-.895-2.056c-1.804-4.776-4.61-7.405-6.759-8.813.116-.146.231-.292.344-.445 0 0-.17-.04-.43-.118 1.815-.928 3.017-1.67 3.017-1.67s11.953-7.156 11.435-5.366c-.518 1.79 2.6 8.69 8.315 13.546.166.141.327.284.488.43l.156.143.32.302.173.169.296.296.166.171.314.337.126.136c.143.157.283.316.422.477l.09.108c.108.128.215.255.32.382l.143.179.252.322.146.188.251.33.13.173.292.405.07.095c.12.168.236.335.35.503l.086.128.25.38.107.163.223.352.098.156.234.384.068.111c.203.335.395.67.578 1.006l.03.055.239.432.038.07.228.433.016.03a38.062 38.062 0 0 1 1.727 3.788c-.293.07-.589.121-.888.151-1.558 6.903 2.6 6.903 2.6 6.903s15.333-2.3 21.05-8.18c5.716-5.88-1.026-5.39-1.026-5.39z"/><path id="q5guE" d="M945.227 350.424s6.32 1.639 9.472 10.11c.253.685.543 1.357.867 2.011l1.979 3.967s2.551 4.869-7.27 5.027a11.402 11.402 0 0 1-2.288-.198c-3.426-.641-14.506-2.584-16.842-1.315a43.473 43.473 0 0 1-4.022 2.01l-2.765-3.016 1.006-4.022s3.32.624 6.189-.017c.728-.164 1.469-.27 2.214-.317l11.209-.666s-8.798-6.284-8.798-8.547c0-2.262 9.05-5.027 9.05-5.027z"/><path id="q5guF" d="M926.374 365.758s-2.765 4.51 2.889 5.278c0 0-4.146 2.766-3.643 6.536 0 0-2.765 2.765-3.519-1.508s-.251-11.815-.251-11.815 4.524-.754 4.524 1.509z"/><path id="q5guG" d="M925.62 369.528l1.006-4.022s3.32.624 6.189-.017c.728-.165 1.469-.27 2.214-.317l11.204-.671s-8.798-6.285-8.798-8.547c0-2.262 9.05-5.027 9.05-5.027l.067.02a8.229 8.229 0 0 0-1.325-.523s-9.05 2.765-9.05 5.027c0 2.263 8.799 8.547 8.799 8.547l-11.201.671c-.746.047-1.486.153-2.215.317-2.868.64-6.189.017-6.189.017l-1.005 4.022 2.765 3.017s.186-.075.568-.251z"/><path id="q5guH" d="M918.899 438.626V435.2l70.206-19.69 12.556-1.428v3.14l-69.92 25.112z"/><path id="q5guI" d="M918.899 435.2l70.206-23.117 12.272 1.999-69.636 24.828z"/><path id="q5guJ" d="M929.743 436.057v-53.083h4.567v53.083z"/><path id="q5guK" d="M984.537 417.221v-46.519h4.568v46.52z"/><path id="q5guL" d="M1000.52 356.148v14.27l-57.01 12.735-6.744 1.508-16.726 3.735-4.852-1.427v-16.55l25.867-4.933 6.44-1.227 47.032-8.966z"/><path id="q5guM" d="M934.31 382.974v2.806l-4.567 1.02v-3.826z"/><path id="q5guN" d="M989.105 370.702v2.838l-4.568 1.018v-3.856z"/><path id="q5guO" d="M1000.52 356.148v14.27l-23.147 5.17-6.732 1.504-27.13 6.06-6.745 1.509-16.726 3.735.286-16.266 23.245-4.633 6.503-1.294h.002l26.573-5.297 6.49-1.294z"/><path id="q5guP" d="M950.076 366.203l-6.566 16.95-6.744 1.508 6.805-17.164-2.516-2.01 6.44-1.228 2.579 1.944z"/><path id="q5guQ" d="M983.466 359.858l-6.093 15.73-6.732 1.504 6.32-15.94-.312-.246-2.202-1.765 6.438-1.226 2.255 1.697.324.246z"/><path id="q5guR" d="M930.743 435.13l4.565-1.072v1.071l-4.565 1.071z"/><path id="q5guS" d="M985.251 416.294l4.565-1.071v1.07l-4.565 1.07z"/><path id="q5guT" d="M976.43 312.818l-9.924 5.97s-.236.07-3.52 4.236l-1.178 1.508c-2.494 3.205-7.677 4.274-7.677 4.274l-3.288-5.058-.694-6.144.73-2.48.577-1.966 5.058.724 2.036 1.098 2.514-2.514a8.433 8.433 0 0 0 6.523-.88l1.69-1.005s2.986-1.682 2.722-3.016c-.151-.755.45-3.952.988-6.536.499-2.39.523-4.855.072-7.255l-.359-1.915s-2.335-8.678 2.835-9.935c5.171-1.256 2.477 8.884 2.477 8.884s-.99 1.242.502 11.37c1.493 10.127-2.084 10.64-2.084 10.64z"/><path id="q5guU" d="M960.071 311.47c-.282 2.66.993 3.017.993 3.017l.754 3.017v3.268l-2.262 3.77h-5.53l-4.777-2.262v-10.558l-.754-2.513a9.729 9.729 0 0 0 1.257-.164c2.426-.485 3.8-1.832 4.575-3.295 1.207-2.29.955-4.847.955-4.847s10.055-2.765 6.536 5.028a28.647 28.647 0 0 0-1.093 2.765 13.5 13.5 0 0 0-.654 2.775z"/><path id="q5guV" d="M953.671 333.539a.523.523 0 0 1-.148.294c-.131.152-.24.321-.325.503-1.176 2.22-3.446 10.055-3.446 10.055l-12.317-4.525-.179-.045-4.849-1.212c1.375-.983 3.673-6.877 4.608-9.406.251-.707.42-1.151.42-1.151l13.071 1.256s3.389 2.967 3.165 4.231z"/><path id="q5guW" d="M948.495 308.444s-3.77 1.509-7.541 0c-3.77-1.508-8.295.755-8.295.755l-11.563.502s-3.268-1.508-7.542 7.793c-4.273 9.3-5.781 9.803-5.781 9.803s-7.793 7.039-2.765 8.799c5.027 1.76 7.792-6.788 7.792-6.788l2.765-5.278s6.285-6.033 6.787-7.29c.503-1.257 3.52-1.257 3.52-1.257l12.568.503-.078 3.675 3.849 3.363 3.52-3.016 2.764-5.53z"/><path id="q5guX" d="M961.818 305.93a28.633 28.633 0 0 0-1.093 2.766h-.415a7.521 7.521 0 0 1-5.985-2.956c1.209-2.28.957-4.837.957-4.837s10.055-2.765 6.536 5.028z"/><path id="q5guY" d="M952.769 300.903a7.541 7.541 0 1 1 15.082 0 7.541 7.541 0 0 1-15.082 0z"/><path id="q5guZ" d="M953.671 333.539a.523.523 0 0 1-.148.294c-.131.152-.24.321-.325.503-4.471-.196-14.257-4.301-16.183-5.123.251-.706.42-1.151.42-1.151l13.071 1.256s3.389 2.957 3.165 4.221z"/><path id="q5guaa" d="M962.997 323.024l-1.179 1.508c-2.494 3.205-7.677 4.274-7.677 4.274l-3.288-5.058-.694-6.144.222-6.017c.7 3.267 2.662 10.085 5.655 10.683 5.005 1.005 4.646-6.166 4.4-9.175a4.074 4.074 0 0 1 .125-1.383l1.006.754.09.139c2.396 3.72 1.858 8.15 1.34 10.42z"/><path id="q5guab" d="M949.752 307.942h-2.514s2.514 16.088-9.3 11.563c0 0 1.005 3.77-1.257 9.05 0 0 12.066 5.278 16.842 5.278l1.508-1.508s4.273-1.76 4.776-5.53l2.262-2.263s2.514-6.787-1.005-12.066l-1.006-.754a4.06 4.06 0 0 0-.125 1.383c.251 3.016.606 10.175-4.4 9.175-6.284-1.257-5.78-14.328-5.78-14.328z"/><path id="q5guac" d="M932.659 353.692l4.022 3.016s6.535 2.011 11.814-5.279c0 0-3.268-.754-2.765-2.513.503-1.76-13.071 4.776-13.071 4.776z"/><path id="q5guad" d="M953.671 333.79a.523.523 0 0 1-.148.295c-1.006 1.005-3.77 10.557-3.77 10.557l-12.318-4.524-.179-.046a17.649 17.649 0 0 1 3.017-1.523c.857-.332 1.72-.684 2.466-1.02.605-.26 1.186-.57 1.737-.93 1.053-.755 5.098-1.961 9.195-2.809z"/><path id="q5guae" d="M982.18 369.528l-3.771 1.006s-.086-.252-.252-.69c-.804-2.045-3.484-8.196-8.044-12.13-5.53-4.776-8.546-11.564-8.044-13.323.503-1.76-11.06 5.279-11.06 5.279s-8.383 5.216-13.924 5.223a5.852 5.852 0 0 1-2.415-.447c-2.137-.963-3.002-2.65-3.29-4.274a7.471 7.471 0 0 1 1.507-5.86 17.189 17.189 0 0 1 7.39-5.512c.858-.332 1.72-.683 2.467-1.02.605-.26 1.186-.57 1.737-.93 1.76-1.257 11.814-3.771 16.59-3.771h4.022s3.43.201 4.505 4.942c.388 1.65.988 3.241 1.785 4.736l6.523 12.443s3.348 5.935 6.372 8.449c.862.718 1.7 1.158 2.426 1.103 3.268-.251-4.525 4.776-4.525 4.776z"/><path id="q5guaf" d="M970.405 297.138c.51-.92.434-2.052-.191-2.896-.845-1.099-2.37-1.35-3.575-2.039-1.093-.626-1.92-1.624-2.936-2.368-1.92-1.41-4.369-1.837-6.719-2.222-1.005-.166-2.03-.332-3.042-.194-1.279.174-2.455.825-3.458 1.637-.356.26-.653.593-.873.975-.372.734-.208 1.614-.274 2.434-.16 1.998-1.704 3.624-3.406 4.683-1.045.65-2.197 1.169-3.067 2.04-.87.873-1.395 2.25-.847 3.352.292.583.863 1.07.865 1.724-.017.29-.097.572-.236.827a12.034 12.034 0 0 1-2.398 3.406c-.89.885-1.954 1.68-2.416 2.848-.445 1.124-.251 2.406.158 3.545.191.543.43 1.086.44 1.659.028 1.395-1.257 2.466-2.551 2.989-.817.329-1.76.58-2.25 1.307-.49.726-.38 1.782.12 2.513.5.732 1.308 1.222 2.137 1.556a7.833 7.833 0 0 0 4.872.398 5.968 5.968 0 0 0 3.808-2.962c.754-1.468.805-3.267 1.85-4.55 1.843-2.24 5.73-1.674 7.652-3.848 1.544-1.747 1.124-4.394 1.006-6.722a20.698 20.698 0 0 1 .16-3.883c.126-.915.358-1.898 1.076-2.476.581-.468 1.365-.574 2.104-.664 1.544-.194 3.321-.568 4.022-1.958.292-.578.38-1.307.905-1.685.727-.522 1.745 0 2.378.629.7.696 1.285 1.553 2.348 1.38.903-.14 1.868-.616 2.338-1.435z"/><path id="q5guag" d="M970.134 296.866a2.682 2.682 0 0 0-.194-2.896c-.845-1.098-2.37-1.35-3.575-2.038-1.093-.626-1.92-1.624-2.936-2.368-1.92-1.41-4.368-1.838-6.719-2.222-1.005-.166-2.03-.332-3.041-.194-1.28.173-2.456.825-3.46 1.636-.355.26-.652.593-.872.976-.372.734-.208 1.614-.274 2.433-.16 1.999-1.704 3.625-3.406 4.683-1.045.651-2.197 1.17-3.066 2.041-.87.873-1.396 2.25-.848 3.351.292.583.863 1.071.865 1.725a1.96 1.96 0 0 1-.236.827 12.034 12.034 0 0 1-2.398 3.406c-.89.885-1.953 1.679-2.416 2.848-.445 1.123-.251 2.405.158 3.544.191.543.43 1.086.44 1.66.028 1.394-1.257 2.465-2.551 2.988-.817.33-1.76.58-2.25 1.307s-.38 1.782.12 2.514c.5.731 1.308 1.222 2.137 1.556a7.833 7.833 0 0 0 4.872.397 5.968 5.968 0 0 0 3.808-2.961c.754-1.468.805-3.268 1.85-4.55 1.843-2.24 5.73-1.674 7.652-3.848 1.544-1.748 1.124-4.394 1.006-6.722a20.709 20.709 0 0 1 .16-3.884c.126-.915.358-1.898 1.077-2.476.58-.468 1.365-.573 2.104-.664 1.543-.193 3.32-.568 4.022-1.958.291-.578.38-1.307.904-1.684.727-.523 1.745 0 2.378.628.7.697 1.285 1.554 2.348 1.38.903-.143 1.87-.618 2.34-1.435z"/><path id="q5guah" d="M944.096 326.669s2.765 2.262 6.285 2.011"/><path id="q5guai" d="M987.312 364.797c-1.443 1.418-4.63 3.474-4.63 3.474l-3.77 1.006s-2.766-8.044-8.296-12.82c-5.53-4.776-8.547-11.563-8.044-13.323.503-1.76-11.06 5.279-11.06 5.279s-8.384 5.216-13.924 5.223a5.852 5.852 0 0 1-2.416-.447c-2.136-.963-3.001-2.65-3.29-4.273a7.21 7.21 0 0 1 .206-3.346 7.338 7.338 0 0 0-.709 4.602c.29 1.624 1.154 3.311 3.29 4.274.765.318 1.589.47 2.416.447 5.53 0 13.924-5.223 13.924-5.223s11.563-7.039 11.06-5.28c-.502 1.76 2.514 8.548 8.044 13.324 5.53 4.776 8.296 12.82 8.296 12.82l3.77-1.006s6.508-4.2 5.133-4.73z"/><path id="q5guaj" d="M942.965 337.855l-.427.199a15.492 15.492 0 0 0-7.265 6.902c-3.368 6.556 1.083 9.51 1.812 9.937a5.852 5.852 0 0 1-2.415-.447c-2.137-.963-3.002-2.65-3.29-4.274a7.47 7.47 0 0 1 1.507-5.86 17.188 17.188 0 0 1 7.39-5.512c.858-.332 1.72-.683 2.467-1.02z"/><path id="q5guak" d="M942.462 337.855s-5.279-1.875-8.798-.937c0 0-2.262 1.943-4.022 3.702-1.433 1.433-5.027 16.088 7.039 14.329 0 0-5.57-2.871-1.91-9.993a15.49 15.49 0 0 1 7.264-6.902z"/><path id="q5gual" d="M982.18 369.528l-3.771 1.006s-.086-.252-.252-.689c.878-.231 2.011-.754 2.011-1.825 0 0 2.879-2.687 4.11-4.371.863.719 1.7 1.158 2.426 1.103 3.268-.251-4.525 4.776-4.525 4.776z"/><path id="q5guam" d="M980.42 368.271s3.77-3.519 4.524-5.027c0 0 7.29 4.273 14.329.503 0 0 6.535-.503 1.005 5.278-5.53 5.782-20.361 8.044-20.361 8.044s-4.022 0-2.514-6.787c0 0 3.017-.251 3.017-2.01z"/><path id="q5guan" d="M1002.857 456.222v-3.426l70.207-19.69 12.556-1.428v3.14l-69.92 25.112z"/><path id="q5guao" d="M1002.857 452.796l70.207-23.117 12.272 1.999-69.636 24.828z"/><path id="q5guap" d="M1013.702 453.653V400.57h4.567v53.083z"/><path id="q5guaq" d="M1068.496 434.818v-46.52h4.568v46.52z"/><path id="q5guar" d="M1084.478 373.744v14.27l-57.009 12.735-6.744 1.508-16.726 3.735-4.852-1.427v-16.55l25.866-4.933 6.44-1.226 47.033-8.967z"/><path id="q5guas" d="M1018.269 400.57v2.806l-4.567 1.02v-3.826z"/><path id="q5guat" d="M1073.064 388.298v2.838l-4.568 1.018v-3.856z"/><path id="q5guau" d="M1084.478 373.744v14.27l-23.146 5.171-6.732 1.503-27.13 6.06-6.745 1.51-16.726 3.734.286-16.266 23.245-4.633 6.503-1.294h.002l26.573-5.297 6.49-1.294z"/><path id="q5guav" d="M1034.035 383.799l-6.566 16.95-6.744 1.508 6.805-17.164-2.517-2.01 6.44-1.227 2.58 1.943z"/><path id="q5guaw" d="M1067.425 377.454l-6.093 15.731-6.732 1.503 6.32-15.94-.312-.246-2.202-1.764 6.438-1.227 2.254 1.697.325.246z"/><path id="q5guax" d="M1014.702 452.725l4.565-1.07v1.07l-4.565 1.071z"/><path id="q5guay" d="M1069.21 433.89l4.565-1.07v1.07l-4.565 1.068z"/><linearGradient id="q5guD" x1="952.91" x2="952.91" y1="378.45" y2="280.18" gradientUnits="userSpaceOnUse"><stop offset="0" stop-color="gray" stop-opacity=".25"/><stop offset=".54" stop-color="gray" stop-opacity=".12"/><stop offset="1" stop-color="gray" stop-opacity=".1"/></linearGradient></defs><g><g transform="translate(-835 -276)"><g opacity=".1"><use fill="#3dc6fa" xlink:href="#q5gua"/></g><g opacity=".2"><g opacity=".2"><use fill="#3dc6fa" xlink:href="#q5gub"/></g><g opacity=".02"><use xlink:href="#q5guc"/></g><g opacity=".2"><use fill="#fff" fill-opacity="0" stroke="#535461" stroke-miterlimit="50" xlink:href="#q5gud"/></g><g opacity=".2"><use fill="#3dc6fa" xlink:href="#q5gue"/></g><g opacity=".2"><use fill="#fff" fill-opacity="0" stroke="#535461" stroke-miterlimit="50" xlink:href="#q5guf"/></g></g><g opacity=".2"><g opacity=".2"><use fill="#3dc6fa" xlink:href="#q5gug"/></g><g opacity=".02"><use xlink:href="#q5guh"/></g><g opacity=".2"><use fill="#fff" fill-opacity="0" stroke="#535461" stroke-miterlimit="50" xlink:href="#q5gui"/></g><g opacity=".2"><use fill="#3dc6fa" xlink:href="#q5guj"/></g><g opacity=".2"><use fill="#fff" fill-opacity="0" stroke="#535461" stroke-miterlimit="50" xlink:href="#q5guk"/></g></g><g opacity=".2"><g opacity=".2"><use fill="#3dc6fa" xlink:href="#q5gul"/></g><g opacity=".02"><use xlink:href="#q5gum"/></g><g opacity=".2"><use fill="#fff" fill-opacity="0" stroke="#535461" stroke-miterlimit="50" xlink:href="#q5gun"/></g><g opacity=".2"><use fill="#3dc6fa" xlink:href="#q5guo"/></g><g opacity=".2"><use fill="#fff" fill-opacity="0" stroke="#535461" stroke-miterlimit="50" xlink:href="#q5gup"/></g></g><g><use fill="#dfe5ee" xlink:href="#q5guq"/></g><g opacity=".05"><use xlink:href="#q5guq"/></g><g><use fill="#dfe5ee" xlink:href="#q5gur"/></g><g><use fill="#dfe5ee" xlink:href="#q5gus"/></g><g><use fill="#dfe5ee" xlink:href="#q5gut"/></g><g><use fill="#dfe5ee" xlink:href="#q5guu"/></g><g opacity=".05"><use xlink:href="#q5guu"/></g><g opacity=".05"><use xlink:href="#q5guv"/></g><g opacity=".05"><use xlink:href="#q5guw"/></g><g><use fill="#dfe5ee" xlink:href="#q5gux"/></g><g><use fill="#3dc6fa" xlink:href="#q5guy"/></g><g><use fill="#3dc6fa" xlink:href="#q5guz"/></g><g opacity=".05"><use xlink:href="#q5guA"/></g><g opacity=".05"><use xlink:href="#q5guB"/></g><g><use fill="url(#q5guD)" xlink:href="#q5guC"/></g><g><use fill="#f8bdc5" xlink:href="#q5guE"/></g><g opacity=".05"><use xlink:href="#q5guF"/></g><g opacity=".05"><use xlink:href="#q5guE"/></g><g opacity=".05"><use xlink:href="#q5guG"/></g><g><use fill="#ffd97b" xlink:href="#q5guF"/></g><g><use fill="#dfe5ee" xlink:href="#q5guH"/></g><g opacity=".05"><use xlink:href="#q5guH"/></g><g><use fill="#dfe5ee" xlink:href="#q5guI"/></g><g><use fill="#dfe5ee" xlink:href="#q5guJ"/></g><g><use fill="#dfe5ee" xlink:href="#q5guK"/></g><g><use fill="#dfe5ee" xlink:href="#q5guL"/></g><g opacity=".05"><use xlink:href="#q5guL"/></g><g opacity=".05"><use xlink:href="#q5guM"/></g><g opacity=".05"><use xlink:href="#q5guN"/></g><g><use fill="#dfe5ee" xlink:href="#q5guO"/></g><g><use fill="#3dc6fa" xlink:href="#q5guP"/></g><g><use fill="#3dc6fa" xlink:href="#q5guQ"/></g><g opacity=".05"><use xlink:href="#q5guR"/></g><g opacity=".05"><use xlink:href="#q5guS"/></g><g><use fill="#f8bdc5" xlink:href="#q5guT"/></g><g><use fill="#f8bdc5" xlink:href="#q5guU"/></g><g><use fill="#f8bdc5" xlink:href="#q5guV"/></g><g><use fill="#f8bdc5" xlink:href="#q5guW"/></g><g opacity=".1"><use xlink:href="#q5guX"/></g><g><use fill="#f8bdc5" xlink:href="#q5guY"/></g><g opacity=".1"><use xlink:href="#q5guZ"/></g><g opacity=".1"><use xlink:href="#q5guaa"/></g><g><use fill="#eb6576" xlink:href="#q5guab"/></g><g><use fill="#5e52ad" xlink:href="#q5guac"/></g><g opacity=".05"><use xlink:href="#q5guac"/></g><g opacity=".1"><use xlink:href="#q5guad"/></g><g><use fill="#f8bdc5" xlink:href="#q5guae"/></g><g opacity=".1"><use xlink:href="#q5guaf"/></g><g><use fill="#6e464e" xlink:href="#q5guag"/></g><g opacity=".1"><use xlink:href="#q5guah"/></g><g opacity=".05"><use xlink:href="#q5guai"/></g><g opacity=".1"><use xlink:href="#q5guaj"/></g><g><use fill="#5e52ad" xlink:href="#q5guak"/></g><g opacity=".1"><use xlink:href="#q5gual"/></g><g><use fill="#ffd97b" xlink:href="#q5guam"/></g><g><use fill="#dfe5ee" xlink:href="#q5guan"/></g><g opacity=".05"><use xlink:href="#q5guan"/></g><g><use fill="#dfe5ee" xlink:href="#q5guao"/></g><g><use fill="#dfe5ee" xlink:href="#q5guap"/></g><g><use fill="#dfe5ee" xlink:href="#q5guaq"/></g><g><use fill="#dfe5ee" xlink:href="#q5guar"/></g><g opacity=".05"><use xlink:href="#q5guar"/></g><g opacity=".05"><use xlink:href="#q5guas"/></g><g opacity=".05"><use xlink:href="#q5guat"/></g><g><use fill="#dfe5ee" xlink:href="#q5guau"/></g><g><use fill="#3dc6fa" xlink:href="#q5guav"/></g><g><use fill="#3dc6fa" xlink:href="#q5guaw"/></g><g opacity=".05"><use xlink:href="#q5guax"/></g><g opacity=".05"><use xlink:href="#q5guay"/></g></g></g></svg>