<svg xmlns="http://www.w3.org/2000/svg" width="18.051" height="18.051" viewBox="0 0 18.051 18.051"><defs><style>.a{fill:#9498b8;fill-rule:evenodd;}</style></defs><g transform="translate(-198.066 -66.027)"><path class="a" d="M140.474,149.686v8.837h4.208V146.485h-4.208Zm17.951.5c-.277-2.281-1.318-3.7-4.4-3.7-1.805,0-3.023.665-3.533,1.628h-.056v-1.628h-3.356v12.038H150.6v-5.969c0-1.573.31-3.09,2.238-3.09s2.081,1.794,2.081,3.2v5.858h3.611v-6.611a14.09,14.09,0,0,0-.1-1.728Zm-15.847-9.712a2.1,2.1,0,1,0,2.1,2.1,2.1,2.1,0,0,0-2.1-2.1Z" transform="translate(57.592 -74.445)"/></g></svg>