<svg xmlns="http://www.w3.org/2000/svg" xmlns:xlink="http://www.w3.org/1999/xlink" width="19" height="18" viewBox="0 0 19 18"><defs><path id="v7wea" d="M1284.682 483.105a2.103 2.103 0 1 1-2.104-2.104c1.163 0 2.104.94 2.104 2.104zm13.744 7.607c.066.532.099 1.108.099 1.728v6.611h-3.61v-5.858c0-1.406-.144-3.2-2.082-3.2-1.927 0-2.237 1.517-2.237 3.09v5.968h-3.511v-12.037h3.356v1.628h.055c.51-.964 1.728-1.628 3.533-1.628 3.079 0 4.12 1.417 4.397 3.698zm-17.952-3.698h4.208v12.037h-4.208z"/></defs><g><g transform="translate(-1280 -481)"><use fill="#9498b8" xlink:href="#v7wea"/></g></g></svg>