<svg id="Layer_1" data-name="Layer 1" xmlns="http://www.w3.org/2000/svg" viewBox="0 0 600 200"><defs><style>.cls-1,.cls-2,.cls-3,.cls-4,.cls-5,.cls-6,.cls-7,.cls-8{fill:#4464fb;}.cls-1{opacity:0.4;}.cls-2{opacity:0.8;}.cls-3{opacity:0.6;}.cls-4{opacity:0.5;}.cls-5{opacity:0.9;}.cls-6{opacity:0.7;}.cls-7{opacity:0.3;}.cls-9{fill:#212d56;}</style></defs><title>Artboard 1rm</title><path class="cls-1" d="M32.85,83.19a9.46,9.46,0,0,0,6.85-2.63C42.25,78,43,74,41.73,69.66L35.21,47.1A62.08,62.08,0,0,0,28,51.39l5.94,20.53c.48,1.67.28,2.65,0,2.9s-1.23.45-2.9,0L10.84,68.94a62.74,62.74,0,0,0-4.11,7.27L28.8,82.58A14.48,14.48,0,0,0,32.85,83.19Z"/><path class="cls-2" d="M87.88,128.74c-2.55,2.55-3.29,6.53-2,10.9l5.94,20.58A62.22,62.22,0,0,0,99,156l-5.38-18.63c-.49-1.68-.29-2.66,0-2.91s1.24-.45,2.91,0L115.44,140a61.72,61.72,0,0,0,4.41-7.18l-21.07-6.09C94.41,125.46,90.43,126.19,87.88,128.74Z"/><path class="cls-3" d="M39.7,128.74c-2.55-2.55-6.52-3.29-10.9-2L7.73,132.8A63.11,63.11,0,0,0,12.14,140l18.91-5.46c1.68-.49,2.66-.29,2.91,0s.45,1.23,0,2.91L28.54,156a63.06,63.06,0,0,0,7.24,4.2l5.95-20.58C43,135.27,42.25,131.29,39.7,128.74Z"/><path class="cls-4" d="M29.72,104.65c0-3.61-2.28-6.94-6.27-9.14l-20-11a63,63,0,0,0-2,8.19l18,9.94c1.52.84,2.07,1.68,2.07,2s-.55,1.19-2.07,2L1.88,116.41a63,63,0,0,0,2.23,8l19.34-10.67C27.43,111.59,29.72,108.26,29.72,104.65Z"/><path class="cls-5" d="M108.06,106.68c-1.53-.84-2.08-1.67-2.08-2s.55-1.19,2.08-2l18-9.94a61.43,61.43,0,0,0-2-8.19l-20,11c-4,2.2-6.28,5.53-6.28,9.14s2.29,6.94,6.28,9.14l19.34,10.67a61.41,61.41,0,0,0,2.22-8Z"/><path class="cls-6" d="M63.79,138.72c-3.61,0-6.94,2.29-9.14,6.28L44.34,163.69a61.05,61.05,0,0,0,8.15,2l9.27-16.8c.84-1.53,1.68-2.08,2-2.08s1.19.55,2,2.08l9.27,16.8a61.05,61.05,0,0,0,8.15-2L72.93,145C70.73,141,67.4,138.72,63.79,138.72Z"/><path class="cls-7" d="M63.79,70.58h0c3.61,0,6.94-2.29,9.14-6.27L84.31,43.68a62,62,0,0,0-8.07-2.18L65.82,60.39c-.84,1.52-1.67,2.07-2,2.07s-1.19-.55-2-2.07L51.34,41.5a61.84,61.84,0,0,0-8.06,2.18L54.65,64.31C56.85,68.29,60.18,70.58,63.79,70.58Z"/><path class="cls-8" d="M101.26,67.11a9.46,9.46,0,0,0,6.85,2.63,14.43,14.43,0,0,0,4-.61l22-6.36a63.09,63.09,0,0,0-4.22-7.23l-20,5.79c-1.68.48-2.66.29-2.91,0s-.45-1.24,0-2.91l5.78-20a62.14,62.14,0,0,0-7.24-4.19L99.24,56.21C98,60.58,98.71,64.56,101.26,67.11Z"/><path class="cls-9" d="M196,127.1h-5.69V111.24a4.06,4.06,0,0,0-.81-2.71,3.6,3.6,0,0,0-2.85-1H171.91V127.1h-5.69V79.66h16.94a17.61,17.61,0,0,1,6.37,1A13.16,13.16,0,0,1,194,83.52a11.74,11.74,0,0,1,2.71,4.1,13.39,13.39,0,0,1,.91,4.92v2a10.82,10.82,0,0,1-1.46,5.29,9.57,9.57,0,0,1-4.5,4.06v.82a5.24,5.24,0,0,1,3.18,1.62A5.3,5.3,0,0,1,196,110Zm-24.12-24.8h10.57q4.82,0,7.15-2.07A7.67,7.67,0,0,0,192,94.16V92.94a7.59,7.59,0,0,0-2.34-5.79q-2.34-2.2-7.15-2.2H171.91Z"/><path class="cls-9" d="M211.69,111.92a11.85,11.85,0,0,0,3.12,8.06c1.94,2,4.65,3,8.13,3a14.12,14.12,0,0,0,4.13-.54,9.69,9.69,0,0,0,3-1.49,8.28,8.28,0,0,0,2-2.2,12.35,12.35,0,0,0,1.25-2.68l5,1.36a14.9,14.9,0,0,1-5.25,7.62q-3.84,2.94-10.34,3a17,17,0,0,1-6.6-1.26,14.82,14.82,0,0,1-5.19-3.55,16.49,16.49,0,0,1-3.39-5.49,19.69,19.69,0,0,1-1.22-7v-1.63a17,17,0,0,1,1.26-6.57,15.42,15.42,0,0,1,3.49-5.25,16.38,16.38,0,0,1,5.25-3.46,17,17,0,0,1,6.54-1.25A15.45,15.45,0,0,1,235,97.82a14.85,14.85,0,0,1,2.85,4.88,15,15,0,0,1,.92,4.88v4.34Zm11.25-14.37a12.09,12.09,0,0,0-4.17.71,10.5,10.5,0,0,0-5.76,5,11,11,0,0,0-1.19,3.76h21.69a9.7,9.7,0,0,0-1-3.93,9.53,9.53,0,0,0-2.37-3,10.92,10.92,0,0,0-3.32-1.9A11.21,11.21,0,0,0,222.94,97.55Z"/><path class="cls-9" d="M279.12,121.41h-.82a11,11,0,0,1-4.5,5,12.13,12.13,0,0,1-6.07,1.63,16.78,16.78,0,0,1-6.16-1.12,14.09,14.09,0,0,1-5-3.32,15.64,15.64,0,0,1-3.35-5.39,20.62,20.62,0,0,1-1.22-7.39v-1.08a20.46,20.46,0,0,1,1.22-7.32A15.74,15.74,0,0,1,256.58,97a14.58,14.58,0,0,1,5-3.35,15.82,15.82,0,0,1,6-1.15,13,13,0,0,1,6.26,1.52,10.69,10.69,0,0,1,4.44,4.71h.82V93.49h5.28v26.7c0,1.35.61,2,1.83,2h1.7v4.88h-3.6a5,5,0,0,1-3.76-1.49,5.22,5.22,0,0,1-1.45-3.8ZM268.27,123a10.66,10.66,0,0,0,4.37-.88,9.62,9.62,0,0,0,3.43-2.51,11.86,11.86,0,0,0,2.23-3.89,14.74,14.74,0,0,0,.82-5v-.81a14.55,14.55,0,0,0-.82-5A11.6,11.6,0,0,0,276,101a10.32,10.32,0,0,0-7.76-3.46,10.24,10.24,0,0,0-7.76,3.36,11.43,11.43,0,0,0-2.27,3.86,14.7,14.7,0,0,0-.81,5v1.08c0,3.84,1,6.84,3,9A10.22,10.22,0,0,0,268.27,123Z"/><path class="cls-9" d="M301.61,122.22h12.2V84.54H302V79.66H319.1v42.56h12.2v4.88H301.61Z"/><path class="cls-9" d="M347.09,79.66h10.84l6.37,45h.81l6.37-45h10.84V127.1H377v-45h-.81l-6.37,45h-10.3l-6.38-45h-.81v45h-5.28Z"/><path class="cls-9" d="M422.51,121.41h-.81a11,11,0,0,1-4.51,5,12.1,12.1,0,0,1-6.07,1.63,16.82,16.82,0,0,1-6.16-1.12,14,14,0,0,1-5-3.32,15.66,15.66,0,0,1-3.36-5.39,20.62,20.62,0,0,1-1.22-7.39v-1.08a20.46,20.46,0,0,1,1.22-7.32A15.76,15.76,0,0,1,400,97a14.44,14.44,0,0,1,5-3.35,15.86,15.86,0,0,1,6-1.15,13,13,0,0,1,6.27,1.52,10.8,10.8,0,0,1,4.44,4.71h.81V93.49h5.28v26.7c0,1.35.61,2,1.83,2h1.7v4.88h-3.59a5,5,0,0,1-3.76-1.49,5.19,5.19,0,0,1-1.46-3.8ZM411.67,123a10.7,10.7,0,0,0,4.37-.88,9.67,9.67,0,0,0,3.42-2.51,12.06,12.06,0,0,0,2.24-3.89,15,15,0,0,0,.81-5v-.81a14.8,14.8,0,0,0-.81-5,11.62,11.62,0,0,0-2.28-3.89,10.32,10.32,0,0,0-7.75-3.46,10.62,10.62,0,0,0-4.34.88,10.36,10.36,0,0,0-3.42,2.48,11.27,11.27,0,0,0-2.27,3.86,14.45,14.45,0,0,0-.82,5v1.08c0,3.84,1,6.84,3,9A10.23,10.23,0,0,0,411.67,123Z"/><path class="cls-9" d="M445.82,93.49H458V98h.81a8.72,8.72,0,0,1,3.66-4.1,11,11,0,0,1,5.42-1.32,10.69,10.69,0,0,1,8.2,3.32q3.12,3.31,3.32,9.69l-5.55.81c0-3.12-.75-5.36-2.24-6.74a7.78,7.78,0,0,0-5.49-2.07,7.59,7.59,0,0,0-3.62.81A7.41,7.41,0,0,0,460,100.6a10,10,0,0,0-1.49,3.32A17.08,17.08,0,0,0,458,108v14.23h8.54v4.88H445v-4.88h7.72V98.36h-6.91Z"/><path class="cls-9" d="M496.51,107.45h1.15l12.81-14H517v.4l-14,15.39v1.22l15.58,16.19v.41h-6.5l-14.3-14.78h-1.29V127.1h-5.29V79.66h5.29Z"/><path class="cls-9" d="M533.17,111.92a12,12,0,0,0,3.12,8.06c1.94,2,4.65,3,8.13,3a14.24,14.24,0,0,0,4.14-.54,9.74,9.74,0,0,0,3-1.49,8.12,8.12,0,0,0,2-2.2,12.88,12.88,0,0,0,1.26-2.68l5,1.36a14.9,14.9,0,0,1-5.25,7.62q-3.82,2.94-10.33,3a17,17,0,0,1-6.61-1.26,14.91,14.91,0,0,1-5.19-3.55,16.63,16.63,0,0,1-3.38-5.49,19.47,19.47,0,0,1-1.22-7v-1.63a17,17,0,0,1,1.25-6.57,15.72,15.72,0,0,1,3.49-5.25,16.38,16.38,0,0,1,5.25-3.46,17,17,0,0,1,6.54-1.25,15.74,15.74,0,0,1,7.15,1.52,16,16,0,0,1,4.95,3.76,14.82,14.82,0,0,1,2.84,4.88,15,15,0,0,1,.92,4.88v4.34Zm11.25-14.37a12.09,12.09,0,0,0-4.17.71,10.69,10.69,0,0,0-3.38,2,10.57,10.57,0,0,0-2.38,3,11,11,0,0,0-1.18,3.76H555a9.7,9.7,0,0,0-1-3.93,9.53,9.53,0,0,0-2.37-3,10.8,10.8,0,0,0-3.32-1.9A11.16,11.16,0,0,0,544.42,97.55Z"/><path class="cls-9" d="M569.63,93.49H580.2V79.66h5.29V93.49h13v4.87h-13v21.83c0,1.35.61,2,1.83,2h9.55v4.88H585.42a5,5,0,0,1-3.76-1.49,5.23,5.23,0,0,1-1.46-3.8V98.36H569.63Z"/></svg>