<svg xmlns="http://www.w3.org/2000/svg" xmlns:xlink="http://www.w3.org/1999/xlink" width="52" height="52" viewBox="0 0 52 52">
  <defs>
    <clipPath id="clip-sprite">
      <rect width="52" height="52"/>
    </clipPath>
  </defs>
  <g id="sprite" clip-path="url(#clip-sprite)">
    <path id="Rectangle_2744" data-name="Rectangle 2744" d="M0,0H1A3,3,0,0,1,4,3V41a3,3,0,0,1-3,3H0a0,0,0,0,1,0,0V0A0,0,0,0,1,0,0Z" transform="translate(52 48) rotate(180)" fill="#39316c"/>
    <path id="Rectangle_2746" data-name="Rectangle 2746" d="M0,0H1A3,3,0,0,1,4,3V41a3,3,0,0,1-3,3H0a0,0,0,0,1,0,0V0A0,0,0,0,1,0,0Z" transform="translate(0 4)" fill="#39316c"/>
    <path id="Rectangle_2745" data-name="Rectangle 2745" d="M0,0H1A3,3,0,0,1,4,3V41a3,3,0,0,1-3,3H0a0,0,0,0,1,0,0V0A0,0,0,0,1,0,0Z" transform="translate(4 52) rotate(-90)" fill="#39316c"/>
    <path id="Rectangle_2747" data-name="Rectangle 2747" d="M0,0H1A3,3,0,0,1,4,3V41a3,3,0,0,1-3,3H0a0,0,0,0,1,0,0V0A0,0,0,0,1,0,0Z" transform="translate(48) rotate(90)" fill="#39316c"/>
  </g>
</svg>
