<svg xmlns="http://www.w3.org/2000/svg" xmlns:xlink="http://www.w3.org/1999/xlink" width="21" height="17" viewBox="0 0 21 17"><defs><path id="klkca" d="M1230.42 484.938a8.927 8.927 0 0 1-2.403.653c.875-.52 1.539-1.317 1.85-2.292a8.537 8.537 0 0 1-2.669 1.008 4.177 4.177 0 0 0-3.068-1.306c-2.303 0-4.186 1.849-4.186 4.118 0 .332.056.642.122.941a11.893 11.893 0 0 1-8.638-4.307c-.354.62-.576 1.318-.576 2.07a4.12 4.12 0 0 0 1.86 3.433 4.059 4.059 0 0 1-1.893-.51v.056c0 .531.1 1.019.288 1.483a4.178 4.178 0 0 0 3.079 2.547c-.366.1-.72.155-1.108.155-.265 0-.531-.034-.786-.089a4.225 4.225 0 0 0 3.91 2.879 8.474 8.474 0 0 1-5.195 1.76c-.343 0-.664-.022-1.007-.055a12.094 12.094 0 0 0 6.423 1.849c6.545 0 10.587-4.529 11.638-9.234.19-.841.277-1.672.277-2.49v-.532a8.664 8.664 0 0 0 2.082-2.137z"/></defs><g><g transform="translate(-1210 -483)"><use fill="#9498b8" xlink:href="#klkca"/></g></g></svg>