<svg xmlns="http://www.w3.org/2000/svg" width="20.42" height="16.33" viewBox="0 0 20.42 16.33"><defs><style>.a{fill:#9498b8;fill-rule:evenodd;}</style></defs><g transform="translate(-63 -60)"><path class="a" d="M145.734,153.425a8.928,8.928,0,0,1-2.4.653,4.13,4.13,0,0,0,1.849-2.292,8.538,8.538,0,0,1-2.669,1.007,4.208,4.208,0,0,0-7.254,2.812,4.312,4.312,0,0,0,.122.941,11.893,11.893,0,0,1-8.638-4.307,4.068,4.068,0,0,0,1.285,5.5,4.059,4.059,0,0,1-1.893-.509v.055a3.9,3.9,0,0,0,.288,1.483,4.178,4.178,0,0,0,3.079,2.547,4.12,4.12,0,0,1-1.108.155,3.739,3.739,0,0,1-.787-.088,4.225,4.225,0,0,0,3.91,2.879,8.474,8.474,0,0,1-5.194,1.76c-.344,0-.664-.022-1.007-.055a12.094,12.094,0,0,0,6.423,1.849,11.654,11.654,0,0,0,11.638-9.234,11.329,11.329,0,0,0,.277-2.491v-.532a8.664,8.664,0,0,0,2.082-2.137Z" transform="translate(-62.314 -91.488)"/></g></svg>