<svg xmlns="http://www.w3.org/2000/svg" width="20.432" height="14.98" viewBox="0 0 20.432 14.98"><defs><style>.a{fill:#9498b8;fill-rule:evenodd;}</style></defs><g transform="translate(-124.511 -65.347)"><path class="a" d="M145.394,163.365a4.793,4.793,0,0,0-.82-2.115,2.925,2.925,0,0,0-2.037-.908c-2.857-.21-7.143-.21-7.143-.21h-.023s-4.274,0-7.132.21a2.912,2.912,0,0,0-2.048.908,4.8,4.8,0,0,0-.819,2.115,32.5,32.5,0,0,0-.211,3.432v1.627a31.961,31.961,0,0,0,.211,3.432,4.87,4.87,0,0,0,.819,2.126,3.345,3.345,0,0,0,2.259.908c1.628.166,6.944.222,6.944.222s4.285-.022,7.143-.222a2.874,2.874,0,0,0,2.037-.908,4.865,4.865,0,0,0,.82-2.126,33.823,33.823,0,0,0,.2-3.432V166.8c0-1.7-.2-3.432-.2-3.432Zm-6.6,4.03-5.526,2.978v-5.978l2.5,1.362Z" transform="translate(-0.651 -94.785)"/></g></svg>