<svg xmlns="http://www.w3.org/2000/svg" xmlns:xlink="http://www.w3.org/1999/xlink" width="21" height="15" viewBox="0 0 21 15"><defs><path id="zxrqa" d="M1258.91 491.264l-5.526 2.978V488.263l2.504 1.362zm6.6-4.03s-.21-1.472-.819-2.115c-.775-.84-1.65-.852-2.037-.908-2.857-.21-7.143-.21-7.143-.21h-.023s-4.274 0-7.132.21c-.409.056-1.272.067-2.048.908-.609.643-.819 2.115-.819 2.115s-.21 1.727-.21 3.432v1.627c0 1.727.21 3.433.21 3.433s.21 1.472.82 2.125c.775.853 1.794.82 2.259.908 1.628.166 6.943.222 6.943.222s4.286-.022 7.143-.222c.387-.055 1.262-.055 2.037-.908.61-.653.82-2.125.82-2.125s.199-1.706.199-3.433v-1.627c0-1.705-.2-3.432-.2-3.432z"/></defs><g><g transform="translate(-1245 -484)"><use fill="#9498b8" xlink:href="#zxrqa"/></g></g></svg>