<svg xmlns="http://www.w3.org/2000/svg" width="80" height="80" viewBox="0 0 80 80"><defs><style>.a,.b{fill:#fff;}.b,.c{stroke:#39316c;stroke-width:2px;}.b{stroke-miterlimit:10;}.c{fill:none;}</style></defs><g transform="translate(-514 -2706)"><rect class="a" width="80" height="80" rx="4" transform="translate(514 2706)"/><g transform="translate(0.498 38.375)"><g transform="translate(565.951 2707.625)"><path class="b" d="M61.17,94.222a11.425,11.425,0,0,1-3.921.839,12.123,12.123,0,0,1-4.025-.839,3.227,3.227,0,0,0-3.191,3.261v4.685a3.227,3.227,0,0,0,3.191,3.261H61.17a3.227,3.227,0,0,0,3.191-3.261V97.483A3.227,3.227,0,0,0,61.17,94.222Z" transform="translate(-50.033 -83.742)"/><ellipse class="b" cx="4.236" cy="4.392" rx="4.236" ry="4.392" transform="translate(2.768 0)"/></g><g transform="translate(546.951 2685.625)"><path class="b" d="M61.17,94.222a11.425,11.425,0,0,1-3.921.839,12.123,12.123,0,0,1-4.025-.839,3.227,3.227,0,0,0-3.191,3.261v4.685a3.227,3.227,0,0,0,3.191,3.261H61.17a3.227,3.227,0,0,0,3.191-3.261V97.483A3.227,3.227,0,0,0,61.17,94.222Z" transform="translate(-50.033 -83.742)"/><ellipse class="b" cx="4.236" cy="4.392" rx="4.236" ry="4.392" transform="translate(2.768 0)"/></g><g transform="translate(527.503 2707.625)"><path class="b" d="M61.17,94.222a11.425,11.425,0,0,1-3.921.839,12.123,12.123,0,0,1-4.025-.839,3.227,3.227,0,0,0-3.191,3.261v4.685a3.227,3.227,0,0,0,3.191,3.261H61.17a3.227,3.227,0,0,0,3.191-3.261V97.483A3.227,3.227,0,0,0,61.17,94.222Z" transform="translate(-50.033 -83.742)"/><ellipse class="b" cx="4.236" cy="4.392" rx="4.236" ry="4.392" transform="translate(2.768 0)"/></g></g><g transform="translate(1)"><path class="c" d="M-22319.611-18503.785v5.893" transform="translate(22873.111 21254.826)"/><path class="c" d="M-22324.75-18495.164v7.2h7.143" transform="translate(-28305.447 5469.99) rotate(135)"/></g></g></svg>