<svg xmlns="http://www.w3.org/2000/svg" width="80" height="80" viewBox="0 0 80 80"><defs><style>.a,.c{fill:#fff;}.b{fill:none;}.b,.c{stroke:#39316c;stroke-miterlimit:10;stroke-width:2px;}</style></defs><g transform="translate(-910 -2706)"><rect class="a" width="80" height="80" rx="4" transform="translate(910 2706)"/><g transform="translate(929 2718.001)"><path class="b" d="M300.967,340.667a8.651,8.651,0,0,1-8.625,8.625" transform="translate(-266.786 -303.586)"/><path class="b" d="M90.444,24.027V20.852A12.89,12.89,0,0,1,103.3,8h.482A12.89,12.89,0,0,1,116.63,20.852v3.174" transform="translate(-82.538)"/><path class="c" d="M7.99,204.387H6.407A6.426,6.426,0,0,1,0,197.98v-.24a6.426,6.426,0,0,1,6.407-6.407h1.5Z" transform="translate(0 -167.306)"/><path class="c" d="M390,191.333h1.583a6.426,6.426,0,0,1,6.407,6.407v.24a6.426,6.426,0,0,1-6.407,6.407h-1.505Z" transform="translate(-355.907 -167.306)"/><rect class="c" width="7.61" height="4.877" rx="2.439" transform="translate(17.946 43.323)"/></g></g></svg>