<svg xmlns="http://www.w3.org/2000/svg" width="80" height="80" viewBox="0 0 80 80"><defs><style>.a,.b{fill:#fff;}.b,.c{stroke:#39316c;stroke-linecap:round;stroke-linejoin:round;stroke-width:2px;}.c{fill:none;}</style></defs><g transform="translate(-1326 -2706)"><rect class="a" width="80" height="80" rx="4" transform="translate(1326 2706)"/><g transform="translate(1772.999 2650.423)"><path class="b" d="M2.354,0H25.306A2.354,2.354,0,0,1,27.66,2.354V7.13A13.83,13.83,0,0,1,13.83,20.96h0A13.83,13.83,0,0,1,0,7.13V2.354A2.354,2.354,0,0,1,2.354,0Z" transform="translate(-421 94.82)"/><path class="c" d="M-402.043,86.938a11.394,11.394,0,0,1,11.36-11.36h0a11.394,11.394,0,0,1,11.36,11.36V94.82" transform="translate(-16.552)"/><path class="c" d="M-363.889,277.42l2.875,2.875,6.579-6.579" transform="translate(-48.008 -172.705)"/></g></g></svg>